<?xml version="1.0" encoding="utf-8"?>
<!-- Generator: Adobe Illustrator 27.6.1, SVG Export Plug-In . SVG Version: 6.00 Build 0)  -->
<svg version="1.1" id="Capa_1" xmlns="http://www.w3.org/2000/svg" xmlns:xlink="http://www.w3.org/1999/xlink" x="0px" y="0px"
	 viewBox="0 0 1500 527.2" style="enable-background:new 0 0 1500 527.2;" xml:space="preserve">
<style type="text/css">
	.st0{fill:#CE6428;}
	.st1{fill:#083A4E;}
	.st2{fill:#FFFFFF;}
</style>
<g>
	<path class="st0" d="M247.8,0.3v308.4h-70.1l-0.1-208.2l-27.9,208.2H100L70.6,105.3l-0.1,203.4H0.4V0.3h103.8
		c3.1,18.5,6.3,40.4,9.5,65.6l11.4,78.4l18.4-144C143.5,0.3,247.8,0.3,247.8,0.3z"/>
	<path class="st0" d="M418.7,0.3l45.9,308.4h-82l-4.3-55.4h-28.7l-4.8,55.4h-82.9L302.7,0.3H418.7z M376.2,198.6
		c-4.1-34.9-8.1-78.1-12.2-129.5c-8.2,59.1-13.3,102.2-15.4,129.5H376.2z"/>
	<path class="st0" d="M650.4,0.3l-28.2,136.4l42.5,172h-74.3c-8.9-30.7-17-68.2-24.4-112.4c-2,19.6-4.8,40.3-8.5,62.1l-7.5,50.3
		h-78.1l29.1-172L471.9,0.3h77.5c1.4,8.5,4.2,22.6,8.4,42.5c3.4,15.1,6.1,29,8.2,41.7l17.1-84.2C583.1,0.3,650.4,0.3,650.4,0.3z"/>
	<path class="st0" d="M756.2,0.3v308.4H676V0.3H756.2z"/>
</g>
<g>
	<path class="st1" d="M781.9,0.3h56.8c37.8,0,63.5,1.5,76.9,4.4s24.3,10.4,32.8,22.4c8.4,12,12.7,31.1,12.7,57.4c0,24-3,40.1-9,48.4
		s-17.7,13.2-35.2,14.9c15.9,3.9,26.5,9.2,32,15.8s8.9,12.7,10.2,18.2s2,20.7,2,45.6v81.3h-74.5V206.2c0-16.5-1.3-26.7-3.9-30.7
		c-2.6-3.9-9.4-5.9-20.5-5.9v139.1H782L781.9,0.3L781.9,0.3z M862.1,53.1v68.6c9,0,15.3-1.2,19-3.7c3.6-2.5,5.4-10.5,5.4-24.1v-17
		c0-9.8-1.7-16.2-5.2-19.2C877.8,54.6,871.4,53.1,862.1,53.1z"/>
	<path class="st1" d="M1164.1,186.8h-99.6v54.7c0,11.4,0.8,18.8,2.5,22.1c1.6,3.3,4.8,5,9.5,5c5.8,0,9.7-2.2,11.7-6.6s3-12.9,3-25.4
		v-33.3h73V222c0,15.6-1,27.6-3,36s-6.6,17.3-13.8,26.9c-7.2,9.5-16.4,16.7-27.5,21.4c-11.1,4.8-25,7.1-41.8,7.1
		c-16.3,0-30.6-2.4-43.1-7c-12.4-4.7-22.1-11.1-29-19.3c-6.9-8.2-11.7-17.2-14.4-27c-2.7-9.8-4-24.2-4-43v-73.7
		c0-22.1,3-39.5,9-52.3s15.7-22.5,29.3-29.3c13.6-6.8,29.2-10.2,46.9-10.2c21.6,0,39.4,4.1,53.4,12.3s23.9,19,29.5,32.6
		c5.6,13.5,8.5,32.5,8.5,57.1L1164.1,186.8L1164.1,186.8z M1086.9,145.7v-18.5c0-13.1-0.7-21.5-2.1-25.3s-4.3-5.7-8.6-5.7
		c-5.3,0-8.6,1.6-9.9,4.9c-1.3,3.2-1.9,12-1.9,26.2v18.5h22.5V145.7z"/>
	<path class="st1" d="M1267.5,55.9l-1.3,23.3c5.6-9.3,12.4-16.3,20.5-20.9s17.4-7,27.9-7c13.2,0,24,3.1,32.4,9.3
		s13.8,14.1,16.2,23.5c2.4,9.5,3.6,25.2,3.6,47.3v177.2h-77V133.7c0-17.4-0.6-28-1.7-31.8s-4.3-5.7-9.5-5.7c-5.5,0-8.9,2.2-10.3,6.6
		s-2.1,16.1-2.1,35.1v170.9h-77V55.9H1267.5z"/>
	<path class="st1" d="M1474.4,22.2V62h20.8v40h-20.8v135.2c0,16.6,0.9,25.9,2.6,27.8s8.9,2.9,21.4,2.9v40.8h-31
		c-17.5,0-30-0.7-37.5-2.2s-14.1-4.8-19.8-10.1c-5.7-5.3-9.3-11.3-10.7-18.1c-1.4-6.8-2.1-22.8-2.1-47.9V102h-16.6V62h16.6V22.2
		H1474.4z"/>
</g>
<g>
	<path class="st1" d="M962.3,424.4c-4.2,0-7.7,1.6-10.6,4.8c-2.9,3.2-4.3,7.8-4.3,13.8s1.4,10.6,4.3,13.8c2.9,3.2,6.4,4.8,10.6,4.8
		c4.2,0,7.7-1.6,10.5-4.8c2.8-3.2,4.3-7.8,4.3-13.9c0-5.9-1.4-10.5-4.3-13.7C970,426,966.5,424.4,962.3,424.4z"/>
	<path class="st1" d="M1097.1,423.6c-3.5,0-6.4,1.3-8.7,3.8c-2.3,2.6-3.4,6-3.4,10.4h24c-0.1-4.6-1.3-8.2-3.6-10.6
		C1103.2,424.8,1100.4,423.6,1097.1,423.6z"/>
	<path class="st1" d="M755,449.5c-2.1,1.5-3.1,3.4-3.1,5.7c0,2.2,0.8,4.2,2.5,5.8c1.7,1.6,3.8,2.5,6.4,2.5c2.9,0,5.7-1,8.3-2.9
		c1.9-1.4,3.2-3.2,3.8-5.3c0.4-1.4,0.6-4,0.6-7.8v-3.2c-2.1,0.7-5.3,1.5-9.8,2.5C759.3,447.7,756.4,448.6,755,449.5z"/>
	<polygon class="st1" points="236.6,440.3 259.4,440.3 247.9,409.2 	"/>
	<path class="st1" d="M430.5,424.4c-4.2,0-7.7,1.6-10.6,4.8c-2.9,3.2-4.3,7.8-4.3,13.8s1.4,10.6,4.3,13.8c2.9,3.2,6.4,4.8,10.6,4.8
		s7.7-1.6,10.5-4.8c2.8-3.2,4.3-7.8,4.3-13.9c0-5.9-1.4-10.5-4.3-13.7C438.2,426,434.6,424.4,430.5,424.4z"/>
	<path class="st1" d="M0,359.4v167.7h1498.5V359.4H0z M272.2,473.4l-7.3-19h-33.5l-6.9,19h-17.9l32.6-83.8H257l33.5,83.8
		L272.2,473.4L272.2,473.4z M351.9,473.4H337v-9.1c-2.2,3.2-5.1,5.8-8.7,7.7c-3.6,1.9-7.4,2.8-11.4,2.8c-4.1,0-7.7-0.9-11-2.7
		c-3.2-1.8-5.6-4.3-7-7.5s-2.2-7.7-2.2-13.4v-38.4h16.1v27.9c0,8.5,0.3,13.8,0.9,15.7c0.6,1.9,1.7,3.4,3.2,4.6
		c1.6,1.1,3.5,1.7,5.9,1.7c2.7,0,5.2-0.8,7.4-2.3c2.2-1.5,3.7-3.4,4.5-5.6s1.2-7.7,1.2-16.4v-25.6H352v60.6H351.9z M382.7,474.8
		c-2.9,0-5.5-0.5-7.8-1.5s-4-2.2-5.1-3.8c-1.1-1.5-1.8-3.6-2.3-6.3c-0.3-1.9-0.5-5.6-0.5-11.3v-26.5h-7.4v-12.8h7.4v-12.1l16.1-9.4
		v21.4h11v12.8h-11V450c0,5,0.1,7.8,0.3,8.7c0.2,0.8,0.7,1.5,1.4,2c0.7,0.5,1.6,0.8,2.7,0.8c1.5,0,3.6-0.5,6.5-1.5l1.4,12.5
		C391.6,474,387.4,474.8,382.7,474.8z M452.9,465.7c-5.9,6-13.4,9.1-22.4,9.1c-5.6,0-10.9-1.3-15.9-3.8s-8.9-6.2-11.5-11.1
		s-3.9-10.8-3.9-17.7c0-5.3,1.3-10.5,3.9-15.5s6.4-8.8,11.2-11.4c4.8-2.6,10.2-3.9,16.1-3.9c9.2,0,16.7,3,22.6,8.9
		c5.9,6,8.8,13.5,8.8,22.6C461.8,452.1,458.8,459.7,452.9,465.7z M516.1,468.8c-4.6,4-11.5,6-20.6,6c-8.3,0-14.8-1.7-19.6-5
		c-4.8-3.4-8-7.9-9.5-13.7l16.1-2.5c0.7,3.1,2.1,5.5,4.2,7.1s5,2.4,8.8,2.4c4.2,0,7.3-0.8,9.4-2.3c1.4-1.1,2.1-2.5,2.1-4.3
		c0-1.2-0.4-2.2-1.1-3c-0.8-0.8-2.6-1.5-5.4-2.1c-13-2.9-21.2-5.5-24.6-7.8c-4.8-3.3-7.2-7.8-7.2-13.7c0-5.3,2.1-9.7,6.2-13.3
		c4.2-3.6,10.6-5.4,19.3-5.4c8.3,0,14.5,1.4,18.5,4.1s6.8,6.7,8.3,12l-15.1,2.8c-0.6-2.4-1.9-4.2-3.7-5.4c-1.8-1.3-4.4-1.9-7.7-1.9
		c-4.2,0-7.3,0.6-9.1,1.8c-1.2,0.8-1.8,1.9-1.8,3.3c0,1.1,0.5,2.1,1.6,2.9c1.4,1.1,6.4,2.6,15,4.5s14.5,4.3,17.9,7.1
		c3.4,2.9,5,6.8,5,11.9C523,460,520.7,464.8,516.1,468.8z M598.3,471.1l-3.8,10.6c-1.4,3.5-2.8,6.2-4,8.1c-1.3,1.9-2.7,3.4-4.4,4.5
		c-1.7,1.2-3.7,2.1-6.1,2.7c-2.4,0.6-5.2,1-8.2,1c-3.1,0-6.1-0.3-9.1-1l-1.4-12.6c2.5,0.5,4.8,0.7,6.8,0.7c3.7,0,6.5-1.1,8.3-3.3
		c1.8-2.2,3.2-5,4.1-8.4l-23.1-60.9h17.1l14.5,43.1l14.2-43.1h16.6L598.3,471.1z M715.4,468.2c-5.8,4.4-13.3,6.7-22.3,6.7
		c-11.1,0-20.3-3.8-27.4-11.4c-7.2-7.6-10.7-18-10.7-31.2c0-13.9,3.6-24.8,10.8-32.5s16.7-11.6,28.4-11.6c10.2,0,18.6,3,25,9.1
		c3.8,3.6,6.7,8.7,8.6,15.4l-16.7,4c-1-4.3-3.1-7.8-6.2-10.3c-3.1-2.5-7-3.8-11.5-3.8c-6.2,0-11.2,2.2-15.1,6.7
		c-3.9,4.5-5.8,11.7-5.8,21.7c0,10.6,1.9,18.1,5.7,22.6s8.8,6.7,14.9,6.7c4.5,0,8.4-1.4,11.6-4.3c3.2-2.9,5.6-7.4,7-13.5l16.4,5.2
		C725.5,457,721.3,463.7,715.4,468.2z M776.9,473.4c-0.4-1.1-0.9-2.6-1.5-4.7c-0.3-1-0.5-1.6-0.6-1.9c-2.7,2.7-5.7,4.7-8.8,6
		s-6.5,2-10,2c-6.2,0-11.2-1.7-14.8-5.1s-5.4-7.7-5.4-12.9c0-3.4,0.8-6.5,2.5-9.2c1.6-2.7,3.9-4.7,6.9-6.2c3-1.4,7.2-2.7,12.8-3.7
		c7.5-1.4,12.7-2.7,15.6-3.9v-1.6c0-3.1-0.8-5.3-2.3-6.6c-1.5-1.3-4.4-2-8.6-2c-2.9,0-5.1,0.6-6.7,1.7c-1.6,1.1-2.9,3.1-3.9,5.9
		l-14.6-2.6c1.6-5.9,4.5-10.2,8.5-13s9.9-4.2,17.8-4.2c7.2,0,12.5,0.8,16,2.5s6,3.8,7.4,6.5c1.4,2.6,2.1,7.4,2.1,14.4l-0.2,18.7
		c0,5.3,0.3,9.3,0.8,11.8s1.5,5.2,2.9,8.1L776.9,473.4L776.9,473.4z M890.8,473.4h-16.1v-34.7c0-6-0.6-9.9-1.7-11.7
		c-1.5-2.3-3.8-3.4-6.9-3.4c-2.2,0-4.4,0.7-6.3,2.1c-2,1.4-3.4,3.4-4.3,6c-0.9,2.6-1.3,6.8-1.3,12.5v29.1h-16.1V440
		c0-5.9-0.3-9.7-0.9-11.4c-0.6-1.7-1.5-3-2.7-3.8s-2.8-1.3-4.9-1.3c-2.5,0-4.7,0.7-6.7,2s-3.4,3.3-4.3,5.8
		c-0.9,2.5-1.3,6.7-1.3,12.5v29.5h-16.1v-60.7H816v8.3c5.3-6.4,11.6-9.7,18.9-9.7c3.9,0,7.3,0.8,10.1,2.4c2.9,1.6,5.2,4,7,7.3
		c2.7-3.2,5.5-5.7,8.6-7.3c3.1-1.6,6.4-2.4,9.9-2.4c4.5,0,8.2,0.9,11.3,2.7c3.1,1.8,5.4,4.5,6.9,8c1.1,2.6,1.7,6.8,1.7,12.6v38.9
		H890.8z M920.6,473.4h-16.1v-60.7h16.1V473.4z M920.6,404.5h-16.1v-14.9h16.1V404.5z M984.7,465.7c-5.9,6-13.4,9.1-22.4,9.1
		c-5.6,0-10.9-1.3-15.9-3.8s-8.9-6.2-11.5-11.1s-3.9-10.8-3.9-17.7c0-5.3,1.3-10.5,3.9-15.5c2.6-5,6.4-8.8,11.2-11.4
		s10.2-3.9,16.1-3.9c9.2,0,16.7,3,22.6,8.9c5.9,6,8.8,13.5,8.8,22.6C993.6,452.1,990.6,459.7,984.7,465.7z M1059,473.4h-16v-31
		c0-6.6-0.3-10.8-1-12.7c-0.7-1.9-1.8-3.4-3.3-4.5s-3.4-1.6-5.6-1.6c-2.8,0-5.3,0.8-7.5,2.3c-2.2,1.5-3.7,3.5-4.5,6.1
		c-0.8,2.5-1.2,7.2-1.2,13.9v27.5h-16.1v-60.7h14.9v8.9c5.3-6.9,12-10.3,20-10.3c3.5,0,6.8,0.6,9.7,1.9c2.9,1.3,5.2,2.9,6.7,4.9
		s2.6,4.2,3.1,6.7c0.6,2.5,0.9,6.1,0.9,10.8L1059,473.4L1059,473.4z M1125,447.7h-40.2c0.1,4.8,1.4,8.5,3.9,11.1s5.6,4,9.3,4
		c2.5,0,4.6-0.7,6.3-2.1c1.7-1.4,3-3.6,3.9-6.6l16,2.7c-2.1,5.9-5.3,10.3-9.7,13.4c-4.4,3.1-10,4.6-16.7,4.6
		c-10.6,0-18.4-3.4-23.4-10.3c-4-5.5-6-12.5-6-20.9c0-10.1,2.6-17.9,7.9-23.6s11.9-8.5,19.9-8.5c9,0,16.2,3,21.4,8.9
		C1122.7,426.3,1125.2,435.4,1125,447.7z M1152.2,474.8c-2.9,0-5.5-0.5-7.8-1.5s-4-2.2-5.1-3.8c-1.1-1.5-1.8-3.6-2.3-6.3
		c-0.3-1.9-0.5-5.6-0.5-11.3v-26.5h-7.4v-12.8h7.4v-12.1l16.1-9.4v21.4h11v12.8h-11V450c0,5,0.1,7.8,0.3,8.7c0.2,0.8,0.7,1.5,1.4,2
		c0.7,0.5,1.6,0.8,2.7,0.8c1.5,0,3.6-0.5,6.5-1.5l1.4,12.5C1161.1,474,1156.9,474.8,1152.2,474.8z M1209.2,473.4
		c-0.4-1.1-0.9-2.6-1.5-4.7c-0.3-1-0.5-1.6-0.6-1.9c-2.7,2.7-5.7,4.7-8.8,6c-3.1,1.3-6.5,2-10,2c-6.2,0-11.2-1.7-14.8-5.1
		c-3.6-3.4-5.4-7.7-5.4-12.9c0-3.4,0.8-6.5,2.5-9.2c1.6-2.7,3.9-4.7,6.9-6.2c3-1.4,7.2-2.7,12.8-3.7c7.5-1.4,12.7-2.7,15.6-3.9v-1.6
		c0-3.1-0.8-5.3-2.3-6.6c-1.5-1.3-4.4-2-8.6-2c-2.9,0-5.1,0.6-6.7,1.7s-2.9,3.1-3.9,5.9l-14.6-2.6c1.6-5.9,4.5-10.2,8.5-13
		s9.9-4.2,17.8-4.2c7.2,0,12.5,0.8,16,2.5s6,3.8,7.4,6.5c1.4,2.6,2.1,7.4,2.1,14.4l-0.2,18.7c0,5.3,0.3,9.3,0.8,11.8
		s1.5,5.2,2.9,8.1L1209.2,473.4L1209.2,473.4z M1279.2,468.8c-4.6,4-11.5,6-20.6,6c-8.3,0-14.8-1.7-19.6-5c-4.8-3.4-8-7.9-9.5-13.7
		l16.1-2.5c0.7,3.1,2.1,5.5,4.2,7.1s5,2.4,8.8,2.4c4.2,0,7.3-0.8,9.4-2.3c1.4-1.1,2.1-2.5,2.1-4.3c0-1.2-0.4-2.2-1.1-3
		c-0.8-0.8-2.6-1.5-5.4-2.1c-13-2.9-21.2-5.5-24.6-7.8c-4.8-3.3-7.2-7.8-7.2-13.7c0-5.3,2.1-9.7,6.2-13.3c4.2-3.6,10.6-5.4,19.3-5.4
		c8.3,0,14.5,1.4,18.5,4.1s6.8,6.7,8.3,12l-15.1,2.8c-0.6-2.4-1.9-4.2-3.7-5.4c-1.8-1.3-4.4-1.9-7.7-1.9c-4.2,0-7.3,0.6-9.1,1.8
		c-1.2,0.8-1.8,1.9-1.8,3.3c0,1.1,0.5,2.1,1.6,2.9c1.4,1.1,6.4,2.6,15,4.5s14.5,4.3,17.9,7.1c3.4,2.9,5,6.8,5,11.9
		C1286.1,460,1283.8,464.8,1279.2,468.8z"/>
	<path class="st1" d="M1187.3,449.5c-2.1,1.5-3.1,3.4-3.1,5.7c0,2.2,0.8,4.2,2.5,5.8c1.7,1.6,3.8,2.5,6.4,2.5c2.9,0,5.7-1,8.3-2.9
		c1.9-1.4,3.2-3.2,3.8-5.3c0.4-1.4,0.6-4,0.6-7.8v-3.2c-2.1,0.7-5.3,1.5-9.8,2.5C1191.6,447.7,1188.7,448.6,1187.3,449.5z"/>
</g>
<g>
	<path class="st2" d="M239.6,595.7v308.4h-70.1l-0.1-208.2l-27.9,208.2H91.8L62.3,700.7l-0.1,203.4H-7.8V595.7H96
		c3.1,18.5,6.3,40.4,9.5,65.6l11.4,78.4l18.4-144C135.2,595.7,239.6,595.7,239.6,595.7z"/>
	<path class="st2" d="M410.5,595.7l45.9,308.4h-82l-4.3-55.4h-28.7l-4.8,55.4h-82.9l40.8-308.4H410.5z M368,794
		c-4.1-34.9-8.1-78.1-12.2-129.5c-8.2,59.1-13.3,102.2-15.4,129.5H368z"/>
	<path class="st2" d="M642.2,595.7L614,732.1l42.5,172h-74.3c-8.9-30.7-17-68.2-24.4-112.4c-2,19.6-4.8,40.3-8.5,62.1l-7.5,50.3
		h-78.1l29.1-172l-29.1-136.4h77.5c1.4,8.5,4.2,22.6,8.4,42.5c3.4,15.1,6.1,29,8.2,41.7l17.1-84.2
		C574.9,595.7,642.2,595.7,642.2,595.7z"/>
	<path class="st2" d="M748,595.7v308.4h-80.2V595.7H748z"/>
</g>
<g>
	<path class="st2" d="M773.7,595.7h56.8c37.8,0,63.5,1.5,76.9,4.4c13.4,2.9,24.3,10.4,32.8,22.4c8.4,12,12.7,31.1,12.7,57.4
		c0,24-3,40.1-9,48.4s-17.7,13.2-35.2,14.9c15.9,3.9,26.5,9.2,32,15.8c5.5,6.6,8.9,12.7,10.2,18.2s2,20.7,2,45.6v81.3h-74.5V801.6
		c0-16.5-1.3-26.7-3.9-30.7c-2.6-3.9-9.4-5.9-20.5-5.9v139.1h-80.2L773.7,595.7L773.7,595.7z M853.8,648.5v68.6c9,0,15.3-1.2,19-3.7
		c3.6-2.5,5.4-10.5,5.4-24.1v-17c0-9.8-1.7-16.2-5.2-19.2C869.5,650,863.2,648.5,853.8,648.5z"/>
	<path class="st2" d="M1155.8,782.2h-99.6v54.7c0,11.4,0.8,18.8,2.5,22.1c1.6,3.3,4.8,5,9.5,5c5.8,0,9.7-2.2,11.7-6.6
		c2-4.4,3-12.9,3-25.4v-33.3h73v18.7c0,15.6-1,27.6-3,36c-2,8.4-6.6,17.3-13.8,26.9c-7.2,9.5-16.4,16.7-27.5,21.4
		c-11.1,4.8-25,7.1-41.8,7.1c-16.3,0-30.6-2.4-43.1-7c-12.4-4.7-22.1-11.1-29-19.3s-11.7-17.2-14.4-27s-4-24.2-4-43v-73.7
		c0-22.1,3-39.5,9-52.3s15.7-22.5,29.3-29.3c13.6-6.8,29.2-10.2,46.9-10.2c21.6,0,39.4,4.1,53.4,12.3c14,8.2,23.9,19,29.5,32.6
		c5.6,13.5,8.5,32.5,8.5,57.1L1155.8,782.2L1155.8,782.2z M1078.7,741.1v-18.5c0-13.1-0.7-21.5-2.1-25.3s-4.3-5.7-8.6-5.7
		c-5.3,0-8.6,1.6-9.9,4.9c-1.3,3.2-1.9,12-1.9,26.2v18.5h22.5V741.1z"/>
	<path class="st2" d="M1259.2,651.3l-1.3,23.3c5.6-9.3,12.4-16.3,20.5-20.9c8.1-4.6,17.4-7,27.9-7c13.2,0,24,3.1,32.4,9.3
		s13.8,14.1,16.2,23.5c2.4,9.5,3.6,25.2,3.6,47.3V904h-77V729.1c0-17.4-0.6-28-1.7-31.8s-4.3-5.7-9.5-5.7c-5.5,0-8.9,2.2-10.3,6.6
		c-1.4,4.4-2.1,16.1-2.1,35.1v170.9h-77V651.3H1259.2z"/>
	<path class="st2" d="M1466.2,617.6v39.8h20.8v40h-20.8v135.2c0,16.6,0.9,25.9,2.6,27.8c1.7,1.9,8.9,2.9,21.4,2.9v40.8h-31
		c-17.5,0-30-0.7-37.5-2.2s-14.1-4.8-19.8-10.1c-5.7-5.3-9.3-11.3-10.7-18.1c-1.4-6.8-2.1-22.8-2.1-47.9V697.4h-16.6v-40h16.6v-39.8
		H1466.2z"/>
</g>
<g>
	<path class="st2" d="M954,1019.8c-4.2,0-7.7,1.6-10.6,4.8c-2.9,3.2-4.3,7.8-4.3,13.8s1.4,10.6,4.3,13.8c2.9,3.2,6.4,4.8,10.6,4.8
		c4.2,0,7.7-1.6,10.5-4.8s4.3-7.8,4.3-13.9c0-5.9-1.4-10.5-4.3-13.7C961.8,1021.4,958.2,1019.8,954,1019.8z"/>
	<path class="st2" d="M1088.8,1019c-3.5,0-6.4,1.3-8.7,3.8c-2.3,2.6-3.4,6-3.4,10.4h24c-0.1-4.6-1.3-8.2-3.6-10.6
		C1094.9,1020.2,1092.2,1019,1088.8,1019z"/>
	<path class="st2" d="M746.8,1044.9c-2.1,1.5-3.1,3.4-3.1,5.7c0,2.2,0.8,4.2,2.5,5.8s3.8,2.5,6.4,2.5c2.9,0,5.7-1,8.3-2.9
		c1.9-1.4,3.2-3.2,3.8-5.3c0.4-1.4,0.6-4,0.6-7.8v-3.2c-2.1,0.7-5.3,1.5-9.8,2.5C751,1043.1,748.2,1044,746.8,1044.9z"/>
	<polygon class="st2" points="228.4,1035.7 251.1,1035.7 239.6,1004.6 	"/>
	<path class="st2" d="M422.2,1019.8c-4.2,0-7.7,1.6-10.6,4.8c-2.9,3.2-4.3,7.8-4.3,13.8s1.4,10.6,4.3,13.8c2.9,3.2,6.4,4.8,10.6,4.8
		s7.7-1.6,10.5-4.8s4.3-7.8,4.3-13.9c0-5.9-1.4-10.5-4.3-13.7C430,1021.4,426.4,1019.8,422.2,1019.8z"/>
	<path class="st2" d="M-8.2,954.8v167.7h1498.5V954.8H-8.2z M264,1068.8l-7.3-19h-33.5l-6.9,19h-17.9L231,985h17.8l33.5,83.8
		L264,1068.8L264,1068.8z M343.6,1068.8h-14.9v-9.1c-2.2,3.2-5.1,5.8-8.7,7.7s-7.4,2.8-11.4,2.8c-4.1,0-7.7-0.9-11-2.7
		c-3.2-1.8-5.6-4.3-7-7.5c-1.4-3.2-2.2-7.7-2.2-13.4v-38.4h16.1v27.9c0,8.5,0.3,13.8,0.9,15.7c0.6,1.9,1.7,3.4,3.2,4.6
		c1.6,1.1,3.5,1.7,5.9,1.7c2.7,0,5.2-0.8,7.4-2.3c2.2-1.5,3.7-3.4,4.5-5.6c0.8-2.2,1.2-7.7,1.2-16.4v-25.6h16.1v60.6H343.6z
		 M374.5,1070.2c-2.9,0-5.5-0.5-7.8-1.5s-4-2.2-5.1-3.8c-1.1-1.5-1.8-3.6-2.3-6.3c-0.3-1.9-0.5-5.6-0.5-11.3v-26.5h-7.4V1008h7.4
		v-12.1l16.1-9.4v21.4h11v12.8h-11v24.7c0,5,0.1,7.8,0.3,8.7c0.2,0.8,0.7,1.5,1.4,2c0.7,0.5,1.6,0.8,2.7,0.8c1.5,0,3.6-0.5,6.5-1.5
		l1.4,12.5C383.4,1069.4,379.1,1070.2,374.5,1070.2z M444.6,1061.1c-5.9,6-13.4,9.1-22.4,9.1c-5.6,0-10.9-1.3-15.9-3.8
		s-8.9-6.2-11.5-11.1s-3.9-10.8-3.9-17.7c0-5.3,1.3-10.5,3.9-15.5c2.6-5,6.4-8.8,11.2-11.4c4.8-2.6,10.2-3.9,16.1-3.9
		c9.2,0,16.7,3,22.6,8.9c5.9,6,8.8,13.5,8.8,22.6C453.5,1047.5,450.5,1055.1,444.6,1061.1z M507.8,1064.2c-4.6,4-11.5,6-20.6,6
		c-8.3,0-14.8-1.7-19.6-5c-4.8-3.4-8-7.9-9.5-13.7l16.1-2.5c0.7,3.1,2.1,5.5,4.2,7.1s5,2.4,8.8,2.4c4.2,0,7.3-0.8,9.4-2.3
		c1.4-1.1,2.1-2.5,2.1-4.3c0-1.2-0.4-2.2-1.1-3c-0.8-0.8-2.6-1.5-5.4-2.1c-13-2.9-21.2-5.5-24.6-7.8c-4.8-3.3-7.2-7.8-7.2-13.7
		c0-5.3,2.1-9.7,6.2-13.3c4.2-3.6,10.6-5.4,19.3-5.4c8.3,0,14.5,1.4,18.5,4.1s6.8,6.7,8.3,12l-15.1,2.8c-0.6-2.4-1.9-4.2-3.7-5.4
		c-1.8-1.3-4.4-1.9-7.7-1.9c-4.2,0-7.3,0.6-9.1,1.8c-1.2,0.8-1.8,1.9-1.8,3.3c0,1.1,0.5,2.1,1.6,2.9c1.4,1.1,6.4,2.6,15,4.5
		c8.6,1.9,14.5,4.3,17.9,7.1c3.4,2.9,5,6.8,5,11.9C514.8,1055.4,512.5,1060.2,507.8,1064.2z M590,1066.5l-3.8,10.6
		c-1.4,3.5-2.8,6.2-4,8.1c-1.3,1.9-2.7,3.4-4.4,4.5c-1.7,1.2-3.7,2.1-6.1,2.7c-2.4,0.6-5.2,1-8.2,1c-3.1,0-6.1-0.3-9.1-1l-1.4-12.6
		c2.5,0.5,4.8,0.7,6.8,0.7c3.7,0,6.5-1.1,8.3-3.3c1.8-2.2,3.2-5,4.1-8.4l-23.1-60.9h17.1l14.5,43.1l14.2-43.1h16.6L590,1066.5z
		 M707.2,1063.6c-5.8,4.4-13.3,6.7-22.3,6.7c-11.1,0-20.3-3.8-27.4-11.4c-7.2-7.6-10.7-18-10.7-31.2c0-13.9,3.6-24.8,10.8-32.5
		s16.7-11.6,28.4-11.6c10.2,0,18.6,3,25,9.1c3.8,3.6,6.7,8.7,8.6,15.4l-16.7,4c-1-4.3-3.1-7.8-6.2-10.3c-3.1-2.5-7-3.8-11.5-3.8
		c-6.2,0-11.2,2.2-15.1,6.7c-3.9,4.5-5.8,11.7-5.8,21.7c0,10.6,1.9,18.1,5.7,22.6s8.8,6.7,14.9,6.7c4.5,0,8.4-1.4,11.6-4.3
		c3.2-2.9,5.6-7.4,7-13.5l16.4,5.2C717.2,1052.4,713,1059.1,707.2,1063.6z M768.7,1068.8c-0.4-1.1-0.9-2.6-1.5-4.7
		c-0.3-1-0.5-1.6-0.6-1.9c-2.7,2.7-5.7,4.7-8.8,6c-3.1,1.3-6.5,2-10,2c-6.2,0-11.2-1.7-14.8-5.1s-5.4-7.7-5.4-12.9
		c0-3.4,0.8-6.5,2.5-9.2c1.6-2.7,3.9-4.7,6.9-6.2c3-1.4,7.2-2.7,12.8-3.7c7.5-1.4,12.7-2.7,15.6-3.9v-1.6c0-3.1-0.8-5.3-2.3-6.6
		c-1.5-1.3-4.4-2-8.6-2c-2.9,0-5.1,0.6-6.7,1.7c-1.6,1.1-2.9,3.1-3.9,5.9l-14.6-2.6c1.6-5.9,4.5-10.2,8.5-13s9.9-4.2,17.8-4.2
		c7.2,0,12.5,0.8,16,2.5s6,3.8,7.4,6.5c1.4,2.6,2.1,7.4,2.1,14.4l-0.2,18.7c0,5.3,0.3,9.3,0.8,11.8s1.5,5.2,2.9,8.1L768.7,1068.8
		L768.7,1068.8z M882.5,1068.8h-16.1v-34.7c0-6-0.6-9.9-1.7-11.7c-1.5-2.3-3.8-3.4-6.9-3.4c-2.2,0-4.4,0.7-6.3,2.1
		c-2,1.4-3.4,3.4-4.3,6c-0.9,2.6-1.3,6.8-1.3,12.5v29.1h-16.1v-33.3c0-5.9-0.3-9.7-0.9-11.4c-0.6-1.7-1.5-3-2.7-3.8
		s-2.8-1.3-4.9-1.3c-2.5,0-4.7,0.7-6.7,2s-3.4,3.3-4.3,5.8c-0.9,2.5-1.3,6.7-1.3,12.5v29.5H793V1008h14.8v8.3
		c5.3-6.4,11.6-9.7,18.9-9.7c3.9,0,7.3,0.8,10.1,2.4c2.9,1.6,5.2,4,7,7.3c2.7-3.2,5.5-5.7,8.6-7.3c3.1-1.6,6.4-2.4,9.9-2.4
		c4.5,0,8.2,0.9,11.3,2.7s5.4,4.5,6.9,8c1.1,2.6,1.7,6.8,1.7,12.6v38.9H882.5z M912.3,1068.8h-16.1v-60.7h16.1V1068.8z M912.3,999.9
		h-16.1V985h16.1V999.9z M976.5,1061.1c-5.9,6-13.4,9.1-22.4,9.1c-5.6,0-10.9-1.3-15.9-3.8s-8.9-6.2-11.5-11.1s-3.9-10.8-3.9-17.7
		c0-5.3,1.3-10.5,3.9-15.5c2.6-5,6.4-8.8,11.2-11.4c4.8-2.6,10.2-3.9,16.1-3.9c9.2,0,16.7,3,22.6,8.9c5.9,6,8.8,13.5,8.8,22.6
		C985.3,1047.5,982.3,1055.1,976.5,1061.1z M1050.8,1068.8h-16v-31c0-6.6-0.3-10.8-1-12.7c-0.7-1.9-1.8-3.4-3.3-4.5
		c-1.5-1.1-3.4-1.6-5.6-1.6c-2.8,0-5.3,0.8-7.5,2.3c-2.2,1.5-3.7,3.5-4.5,6.1c-0.8,2.5-1.2,7.2-1.2,13.9v27.5h-16.1v-60.7h14.9v8.9
		c5.3-6.9,12-10.3,20-10.3c3.5,0,6.8,0.6,9.7,1.9c2.9,1.3,5.2,2.9,6.7,4.9s2.6,4.2,3.1,6.7c0.6,2.5,0.9,6.1,0.9,10.8L1050.8,1068.8
		L1050.8,1068.8z M1116.8,1043.1h-40.2c0.1,4.8,1.4,8.5,3.9,11.1c2.5,2.6,5.6,4,9.3,4c2.5,0,4.6-0.7,6.3-2.1c1.7-1.4,3-3.6,3.9-6.6
		l16,2.7c-2.1,5.9-5.3,10.3-9.7,13.4c-4.4,3.1-10,4.6-16.7,4.6c-10.6,0-18.4-3.4-23.4-10.3c-4-5.5-6-12.5-6-20.9
		c0-10.1,2.6-17.9,7.9-23.6s11.9-8.5,19.9-8.5c9,0,16.2,3,21.4,8.9C1114.4,1021.7,1116.9,1030.8,1116.8,1043.1z M1143.9,1070.2
		c-2.9,0-5.5-0.5-7.8-1.5s-4-2.2-5.1-3.8c-1.1-1.5-1.8-3.6-2.3-6.3c-0.3-1.9-0.5-5.6-0.5-11.3v-26.5h-7.4V1008h7.4v-12.1l16.1-9.4
		v21.4h11v12.8h-11v24.7c0,5,0.1,7.8,0.3,8.7c0.2,0.8,0.7,1.5,1.4,2c0.7,0.5,1.6,0.8,2.7,0.8c1.5,0,3.6-0.5,6.5-1.5l1.4,12.5
		C1152.8,1069.4,1148.7,1070.2,1143.9,1070.2z M1200.9,1068.8c-0.4-1.1-0.9-2.6-1.5-4.7c-0.3-1-0.5-1.6-0.6-1.9
		c-2.7,2.7-5.7,4.7-8.8,6c-3.1,1.3-6.5,2-10,2c-6.2,0-11.2-1.7-14.8-5.1c-3.6-3.4-5.4-7.7-5.4-12.9c0-3.4,0.8-6.5,2.5-9.2
		c1.6-2.7,3.9-4.7,6.9-6.2c3-1.4,7.2-2.7,12.8-3.7c7.5-1.4,12.7-2.7,15.6-3.9v-1.6c0-3.1-0.8-5.3-2.3-6.6c-1.5-1.3-4.4-2-8.6-2
		c-2.9,0-5.1,0.6-6.7,1.7c-1.6,1.1-2.9,3.1-3.9,5.9l-14.6-2.6c1.6-5.9,4.5-10.2,8.5-13s9.9-4.2,17.8-4.2c7.2,0,12.5,0.8,16,2.5
		s6,3.8,7.4,6.5c1.4,2.6,2.1,7.4,2.1,14.4l-0.2,18.7c0,5.3,0.3,9.3,0.8,11.8s1.5,5.2,2.9,8.1L1200.9,1068.8L1200.9,1068.8z
		 M1270.9,1064.2c-4.6,4-11.5,6-20.6,6c-8.3,0-14.8-1.7-19.6-5c-4.8-3.4-8-7.9-9.5-13.7l16.1-2.5c0.7,3.1,2.1,5.5,4.2,7.1
		s5,2.4,8.8,2.4c4.2,0,7.3-0.8,9.4-2.3c1.4-1.1,2.1-2.5,2.1-4.3c0-1.2-0.4-2.2-1.1-3c-0.8-0.8-2.6-1.5-5.4-2.1
		c-13-2.9-21.2-5.5-24.6-7.8c-4.8-3.3-7.2-7.8-7.2-13.7c0-5.3,2.1-9.7,6.2-13.3c4.2-3.6,10.6-5.4,19.3-5.4c8.3,0,14.5,1.4,18.5,4.1
		s6.8,6.7,8.3,12l-15.1,2.8c-0.6-2.4-1.9-4.2-3.7-5.4c-1.8-1.3-4.4-1.9-7.7-1.9c-4.2,0-7.3,0.6-9.1,1.8c-1.2,0.8-1.8,1.9-1.8,3.3
		c0,1.1,0.5,2.1,1.6,2.9c1.4,1.1,6.4,2.6,15,4.5c8.6,1.9,14.5,4.3,17.9,7.1c3.4,2.9,5,6.8,5,11.9
		C1277.8,1055.4,1275.6,1060.2,1270.9,1064.2z"/>
	<path class="st2" d="M1179.1,1044.9c-2.1,1.5-3.1,3.4-3.1,5.7c0,2.2,0.8,4.2,2.5,5.8s3.8,2.5,6.4,2.5c2.9,0,5.7-1,8.3-2.9
		c1.9-1.4,3.2-3.2,3.8-5.3c0.4-1.4,0.6-4,0.6-7.8v-3.2c-2.1,0.7-5.3,1.5-9.8,2.5C1183.3,1043.1,1180.4,1044,1179.1,1044.9z"/>
</g>
</svg>
